<svg id="svg" version="1.1" xmlns="http://www.w3.org/2000/svg" xmlns:xlink="http://www.w3.org/1999/xlink" width="400" height="400" viewBox="0, 0, 400,400"><g id="svgg"><path id="path0" d="M27.348 54.175 C 26.659 54.475,25.974 54.919,25.824 55.160 C 25.675 55.402,25.210 55.600,24.790 55.600 C 24.371 55.600,23.835 55.960,23.600 56.400 C 23.365 56.840,22.969 57.200,22.722 57.200 C 22.151 57.200,20.000 59.586,20.000 60.218 C 20.000 60.479,19.595 61.207,19.100 61.836 L 18.200 62.980 17.952 163.990 C 17.699 267.429,17.725 269.616,19.246 271.549 C 19.660 272.076,20.000 272.715,20.000 272.969 C 20.000 273.529,23.666 277.200,24.225 277.200 C 24.443 277.200,24.930 277.560,25.307 278.000 C 25.684 278.440,26.429 278.800,26.963 278.800 C 27.497 278.800,28.774 279.160,29.800 279.600 C 31.639 280.388,32.555 280.400,93.019 280.400 C 161.123 280.400,155.200 280.175,155.200 282.761 C 155.200 283.209,155.573 284.292,156.030 285.167 C 157.142 287.300,157.074 302.276,155.945 304.000 C 155.585 304.550,155.166 306.170,155.015 307.600 C 154.863 309.030,154.506 310.470,154.220 310.800 C 153.935 311.130,153.575 312.120,153.421 313.000 C 153.267 313.880,152.795 315.195,152.371 315.923 C 151.947 316.650,151.600 317.560,151.600 317.945 C 151.600 318.330,151.150 319.255,150.600 320.000 C 150.050 320.745,149.600 321.586,149.600 321.867 C 149.600 323.393,147.715 323.599,133.520 323.624 C 116.084 323.654,116.681 323.555,113.422 326.962 C 111.062 329.429,110.829 329.832,110.572 331.882 C 110.089 335.751,110.589 340.377,111.565 341.060 C 112.024 341.382,112.400 341.869,112.400 342.141 C 112.400 342.414,112.953 343.079,113.628 343.619 C 114.303 344.158,115.248 344.960,115.728 345.400 C 117.109 346.667,282.733 346.867,283.997 345.603 C 284.439 345.161,284.966 344.800,285.169 344.800 C 285.372 344.800,286.407 343.783,287.469 342.541 L 289.400 340.282 289.538 336.309 C 289.737 330.608,289.576 330.096,286.604 326.989 C 283.307 323.543,283.877 323.639,266.662 323.617 C 251.868 323.599,250.400 323.416,250.400 321.591 C 250.400 321.242,249.950 320.345,249.400 319.600 C 248.850 318.855,248.400 317.852,248.400 317.371 C 248.400 316.891,248.142 316.284,247.828 316.023 C 247.513 315.762,247.063 314.654,246.829 313.563 C 246.595 312.471,246.154 311.177,245.849 310.689 C 245.545 310.200,245.186 308.672,245.053 307.294 C 244.920 305.916,244.494 304.304,244.106 303.712 C 243.125 302.215,243.034 286.160,244.000 285.006 C 244.330 284.611,244.781 283.459,245.003 282.444 L 245.406 280.600 307.203 280.400 C 364.847 280.213,369.118 280.153,370.750 279.500 C 371.713 279.115,372.783 278.800,373.129 278.800 C 374.561 278.800,379.250 274.724,380.192 272.659 C 380.408 272.187,380.806 271.620,381.076 271.400 C 382.329 270.380,382.394 265.213,382.385 167.200 C 382.375 69.607,382.297 63.459,381.050 62.035 C 380.745 61.686,380.360 60.950,380.195 60.400 C 379.877 59.340,376.109 55.607,375.354 55.602 C 375.109 55.601,374.393 55.195,373.764 54.700 L 372.620 53.800 200.610 53.715 C 56.039 53.643,28.400 53.716,27.348 54.175 M288.315 96.030 C 290.082 96.646,290.057 96.019,289.921 136.658 C 289.804 171.464,289.774 172.746,289.038 173.558 C 288.278 174.398,288.207 174.400,261.802 174.400 L 235.328 174.400 234.864 173.381 C 234.526 172.640,234.400 164.953,234.400 145.169 C 234.400 119.631,234.357 117.960,233.700 117.727 C 233.315 117.590,232.720 117.239,232.377 116.947 C 231.874 116.518,226.122 116.395,202.462 116.308 C 176.940 116.214,173.122 116.123,172.791 115.600 C 171.865 114.133,172.325 96.404,173.300 96.012 C 174.650 95.470,286.757 95.487,288.315 96.030 M226.340 124.039 L 227.600 124.478 227.600 162.406 C 227.600 183.267,227.491 200.619,227.357 200.967 C 227.030 201.819,112.230 201.951,111.073 201.100 C 110.440 200.635,110.400 197.971,110.497 162.612 L 110.600 124.624 111.600 124.118 C 112.949 123.435,224.389 123.359,226.340 124.039 M374.987 241.044 C 376.157 242.215,375.714 267.202,374.500 268.494 C 374.005 269.021,373.600 269.653,373.600 269.899 C 373.600 270.145,373.240 270.460,372.800 270.600 C 372.359 270.740,371.827 271.177,371.616 271.570 C 371.370 272.030,370.559 272.379,369.357 272.544 C 368.325 272.685,367.264 272.981,366.998 273.201 C 366.071 273.971,33.859 273.505,31.130 272.730 C 27.907 271.816,25.020 268.772,24.591 265.837 C 24.096 262.452,24.562 241.768,25.149 241.061 C 25.985 240.054,373.981 240.038,374.987 241.044 M183.400 254.151 C 181.030 255.508,180.827 258.265,183.003 259.549 C 185.044 260.753,214.958 260.834,217.000 259.640 C 218.507 258.760,219.044 254.980,217.721 254.564 C 217.324 254.439,216.522 254.081,215.938 253.769 C 213.865 252.658,185.423 252.992,183.400 254.151 M236.533 281.500 C 236.632 281.665,236.442 284.590,236.111 288.000 C 235.412 295.201,236.138 303.761,237.782 307.695 C 238.122 308.508,238.400 309.792,238.400 310.547 C 238.400 311.303,238.848 312.883,239.396 314.060 C 239.944 315.237,240.394 316.583,240.396 317.051 C 240.398 317.519,240.665 318.122,240.989 318.391 C 241.314 318.660,241.694 319.494,241.835 320.245 C 242.350 322.990,245.467 322.800,199.942 322.800 L 158.783 322.800 158.341 321.830 C 157.984 321.047,158.058 320.528,158.723 319.130 C 159.985 316.482,161.210 312.833,161.640 310.448 C 161.853 309.265,162.191 307.991,162.390 307.619 C 164.053 304.512,164.674 293.283,163.681 284.303 C 163.488 282.564,163.528 281.545,163.791 281.435 C 164.525 281.127,236.348 281.192,236.533 281.500 M281.778 331.414 C 283.769 333.406,283.687 336.952,281.606 338.853 L 280.351 340.000 200.047 340.000 L 119.744 340.000 118.514 338.900 C 116.676 337.256,116.518 333.328,118.216 331.496 L 119.232 330.400 199.998 330.400 L 280.764 330.400 281.778 331.414 " stroke="none" fill="#2b4b5b" fill-rule="evenodd"></path><path id="path1" d="M28.600 53.339 C 24.503 54.284,20.225 57.911,18.384 62.000 C 16.784 65.554,16.790 65.111,16.915 168.236 C 17.040 272.192,16.993 269.621,18.803 272.084 C 19.242 272.680,19.600 273.313,19.600 273.491 C 19.600 273.956,23.155 277.600,23.609 277.600 C 23.819 277.600,24.338 277.897,24.762 278.260 C 25.571 278.953,27.641 279.806,30.000 280.418 C 30.809 280.627,57.286 280.785,92.686 280.790 C 161.031 280.801,154.800 280.547,154.800 283.325 C 154.800 283.862,155.098 284.999,155.463 285.851 C 156.462 288.188,156.676 297.327,155.817 301.000 C 155.457 302.540,154.998 304.919,154.798 306.287 C 154.598 307.655,154.178 309.275,153.865 309.887 C 153.552 310.499,153.160 311.630,152.994 312.400 C 152.699 313.770,152.442 314.407,150.134 319.502 C 148.622 322.838,148.842 322.795,133.367 322.798 C 117.024 322.801,116.717 322.855,113.185 326.388 C 107.579 331.993,108.589 341.263,115.280 345.619 L 117.400 347.000 199.400 347.000 C 244.500 347.000,282.070 346.858,282.890 346.684 C 289.453 345.291,292.759 333.954,288.369 327.893 C 284.900 323.105,283.715 322.826,266.600 322.766 C 259.340 322.741,252.950 322.599,252.400 322.450 C 251.212 322.129,247.200 314.553,247.200 312.630 C 247.200 312.320,246.862 311.277,246.449 310.313 C 246.035 309.349,245.569 307.579,245.413 306.380 C 245.257 305.181,244.878 303.439,244.572 302.508 C 243.827 300.247,243.457 292.831,243.928 289.600 C 244.304 287.011,245.579 281.581,245.898 281.200 C 245.991 281.090,274.087 280.909,308.333 280.799 L 370.600 280.597 372.703 279.699 C 377.805 277.520,381.424 273.458,382.644 268.541 C 383.540 264.927,383.503 69.271,382.605 64.963 C 381.420 59.282,376.689 54.415,371.208 53.239 C 368.209 52.596,31.396 52.694,28.600 53.339 M373.764 54.700 C 374.393 55.195,375.109 55.601,375.354 55.602 C 376.109 55.607,379.877 59.340,380.195 60.400 C 380.360 60.950,380.745 61.686,381.050 62.035 C 382.297 63.459,382.375 69.607,382.385 167.200 C 382.394 265.213,382.329 270.380,381.076 271.400 C 380.806 271.620,380.408 272.187,380.192 272.659 C 379.250 274.724,374.561 278.800,373.129 278.800 C 372.783 278.800,371.713 279.115,370.750 279.500 C 369.118 280.153,364.847 280.213,307.203 280.400 L 245.406 280.600 245.003 282.444 C 244.781 283.459,244.330 284.611,244.000 285.006 C 243.034 286.160,243.125 302.215,244.106 303.712 C 244.494 304.304,244.920 305.916,245.053 307.294 C 245.186 308.672,245.545 310.200,245.849 310.689 C 246.154 311.177,246.595 312.471,246.829 313.563 C 247.063 314.654,247.513 315.762,247.828 316.023 C 248.142 316.284,248.400 316.891,248.400 317.371 C 248.400 317.852,248.850 318.855,249.400 319.600 C 249.950 320.345,250.400 321.242,250.400 321.591 C 250.400 323.416,251.868 323.599,266.662 323.617 C 283.877 323.639,283.307 323.543,286.604 326.989 C 289.576 330.096,289.737 330.608,289.538 336.309 L 289.400 340.282 287.469 342.541 C 286.407 343.783,285.372 344.800,285.169 344.800 C 284.966 344.800,284.439 345.161,283.997 345.603 C 282.733 346.867,117.109 346.667,115.728 345.400 C 115.248 344.960,114.303 344.158,113.628 343.619 C 112.953 343.079,112.400 342.414,112.400 342.141 C 112.400 341.869,112.024 341.382,111.565 341.060 C 110.589 340.377,110.089 335.751,110.572 331.882 C 110.829 329.832,111.062 329.429,113.422 326.962 C 116.681 323.555,116.084 323.654,133.520 323.624 C 147.715 323.599,149.600 323.393,149.600 321.867 C 149.600 321.586,150.050 320.745,150.600 320.000 C 151.150 319.255,151.600 318.330,151.600 317.945 C 151.600 317.560,151.947 316.650,152.371 315.923 C 152.795 315.195,153.267 313.880,153.421 313.000 C 153.575 312.120,153.935 311.130,154.220 310.800 C 154.506 310.470,154.863 309.030,155.015 307.600 C 155.166 306.170,155.585 304.550,155.945 304.000 C 157.074 302.276,157.142 287.300,156.030 285.167 C 155.573 284.292,155.200 283.209,155.200 282.761 C 155.200 280.175,161.123 280.400,93.019 280.400 C 32.555 280.400,31.639 280.388,29.800 279.600 C 28.774 279.160,27.497 278.800,26.963 278.800 C 26.429 278.800,25.684 278.440,25.307 278.000 C 24.930 277.560,24.443 277.200,24.225 277.200 C 23.666 277.200,20.000 273.529,20.000 272.969 C 20.000 272.715,19.660 272.076,19.246 271.549 C 17.725 269.616,17.699 267.429,17.952 163.990 L 18.200 62.980 19.100 61.836 C 19.595 61.207,20.000 60.479,20.000 60.218 C 20.000 59.586,22.151 57.200,22.722 57.200 C 22.969 57.200,23.365 56.840,23.600 56.400 C 23.835 55.960,24.371 55.600,24.790 55.600 C 25.210 55.600,25.675 55.402,25.824 55.160 C 26.804 53.576,20.845 53.625,200.610 53.715 L 372.620 53.800 373.764 54.700 M173.300 96.012 C 172.325 96.404,171.865 114.133,172.791 115.600 C 173.122 116.123,176.940 116.214,202.462 116.308 C 226.122 116.395,231.874 116.518,232.377 116.947 C 232.720 117.239,233.315 117.590,233.700 117.727 C 234.357 117.960,234.400 119.631,234.400 145.169 C 234.400 164.953,234.526 172.640,234.864 173.381 L 235.328 174.400 261.802 174.400 C 288.207 174.400,288.278 174.398,289.038 173.558 C 289.774 172.746,289.804 171.464,289.921 136.658 C 290.057 96.019,290.082 96.646,288.315 96.030 C 286.757 95.487,174.650 95.470,173.300 96.012 M288.386 97.174 C 289.210 98.713,288.933 171.748,288.100 172.768 L 287.400 173.624 261.685 173.512 C 239.346 173.415,235.921 173.321,235.591 172.800 C 235.362 172.438,235.210 161.531,235.206 145.254 L 235.200 118.308 233.722 116.954 L 232.244 115.600 203.496 115.600 C 184.444 115.600,174.486 115.460,173.974 115.186 C 173.007 114.669,172.747 97.050,173.700 96.665 C 175.519 95.931,287.988 96.430,288.386 97.174 M111.600 124.118 L 110.600 124.624 110.497 162.612 C 110.400 197.971,110.440 200.635,111.073 201.100 C 112.230 201.951,227.030 201.819,227.357 200.967 C 227.491 200.619,227.600 183.267,227.600 162.406 L 227.600 124.478 226.340 124.039 C 224.389 123.359,112.949 123.435,111.600 124.118 M226.026 124.814 C 226.891 125.277,227.283 200.054,226.423 200.586 C 225.652 201.063,112.326 200.836,111.748 200.357 C 110.798 199.568,110.947 125.387,111.900 124.832 C 112.881 124.260,224.959 124.243,226.026 124.814 M25.149 241.061 C 24.562 241.768,24.096 262.452,24.591 265.837 C 25.020 268.772,27.907 271.816,31.130 272.730 C 33.859 273.505,366.071 273.971,366.998 273.201 C 367.264 272.981,368.325 272.685,369.357 272.544 C 370.559 272.379,371.370 272.030,371.616 271.570 C 371.827 271.177,372.359 270.740,372.800 270.600 C 373.240 270.460,373.600 270.145,373.600 269.899 C 373.600 269.653,374.005 269.021,374.500 268.494 C 375.714 267.202,376.157 242.215,374.987 241.044 C 373.981 240.038,25.985 240.054,25.149 241.061 M374.720 241.680 C 375.681 242.641,375.370 265.298,374.370 267.260 C 373.134 269.682,371.108 271.512,369.126 272.000 C 367.920 272.296,316.609 272.390,198.966 272.312 L 30.532 272.200 28.876 271.053 C 27.966 270.422,26.766 269.130,26.210 268.182 L 25.200 266.458 25.200 254.095 C 25.200 247.296,25.320 241.613,25.467 241.467 C 25.991 240.943,374.196 241.156,374.720 241.680 M182.496 253.911 C 179.898 256.082,180.925 259.841,184.379 260.801 C 185.907 261.225,212.799 261.357,215.249 260.952 C 219.057 260.322,220.400 256.281,217.582 253.928 L 216.230 252.800 200.015 252.811 L 183.800 252.822 182.496 253.911 M215.938 253.769 C 216.522 254.081,217.324 254.439,217.721 254.564 C 219.044 254.980,218.507 258.760,217.000 259.640 C 214.958 260.834,185.044 260.753,183.003 259.549 C 180.827 258.265,181.030 255.508,183.400 254.151 C 185.423 252.992,213.865 252.658,215.938 253.769 M163.791 281.435 C 163.528 281.545,163.488 282.564,163.681 284.303 C 164.674 293.283,164.053 304.512,162.390 307.619 C 162.191 307.991,161.853 309.265,161.640 310.448 C 161.210 312.833,159.985 316.482,158.723 319.130 C 158.058 320.528,157.984 321.047,158.341 321.830 L 158.783 322.800 199.942 322.800 C 245.467 322.800,242.350 322.990,241.835 320.245 C 241.694 319.494,241.314 318.660,240.989 318.391 C 240.665 318.122,240.398 317.519,240.396 317.051 C 240.394 316.583,239.944 315.237,239.396 314.060 C 238.848 312.883,238.400 311.303,238.400 310.547 C 238.400 309.792,238.122 308.508,237.782 307.695 C 236.138 303.761,235.412 295.201,236.111 288.000 C 236.442 284.590,236.632 281.665,236.533 281.500 C 236.348 281.192,164.525 281.127,163.791 281.435 M235.454 302.520 C 235.630 302.697,235.898 304.284,236.050 306.048 C 236.212 307.939,236.567 309.531,236.914 309.927 C 237.237 310.297,237.588 311.547,237.693 312.704 C 237.801 313.903,238.181 315.137,238.576 315.573 C 238.956 315.994,239.368 317.086,239.491 318.001 C 239.626 319.007,240.008 319.848,240.457 320.128 C 240.866 320.384,241.200 320.729,241.200 320.896 C 241.200 321.063,222.660 321.200,200.000 321.200 C 177.340 321.200,158.800 321.063,158.800 320.896 C 158.800 320.729,159.135 320.383,159.544 320.128 C 159.980 319.856,160.399 318.965,160.557 317.978 C 160.705 317.051,161.181 315.842,161.613 315.292 C 162.046 314.742,162.400 313.709,162.400 312.997 C 162.400 312.285,162.746 310.914,163.170 309.951 C 163.593 308.988,164.066 306.904,164.220 305.320 C 164.430 303.159,164.662 302.395,165.150 302.263 C 166.333 301.941,235.127 302.193,235.454 302.520 M118.216 331.496 C 116.518 333.328,116.676 337.256,118.514 338.900 L 119.744 340.000 200.047 340.000 L 280.351 340.000 281.606 338.853 C 283.687 336.952,283.769 333.406,281.778 331.414 L 280.764 330.400 199.998 330.400 L 119.232 330.400 118.216 331.496 M281.292 331.900 C 283.127 333.836,282.951 336.960,280.921 338.500 L 279.471 339.600 199.950 339.600 L 120.428 339.600 119.014 338.359 C 117.107 336.684,116.965 333.801,118.699 331.964 L 119.797 330.800 200.024 330.800 L 280.250 330.800 281.292 331.900 " stroke="none" fill="#76868e" fill-rule="evenodd"></path><path id="path2" d="M0.000 200.000 L 0.000 400.000 200.000 400.000 L 400.000 400.000 400.000 200.000 L 400.000 0.000 200.000 0.000 L 0.000 0.000 0.000 200.000 M371.189 52.100 C 371.733 52.485,372.678 52.800,373.289 52.800 C 373.900 52.800,374.760 53.160,375.200 53.600 C 375.640 54.040,376.170 54.400,376.378 54.400 C 377.089 54.400,381.200 58.498,381.200 59.207 C 381.200 59.596,381.450 60.010,381.755 60.127 C 382.060 60.245,382.731 61.479,383.246 62.870 L 384.182 65.400 384.293 166.365 L 384.403 267.329 383.388 269.867 C 382.089 273.115,379.048 277.587,378.126 277.607 C 377.947 277.611,377.376 278.061,376.858 278.607 C 376.340 279.153,375.599 279.600,375.212 279.600 C 374.825 279.600,373.993 280.005,373.364 280.500 L 372.220 281.400 309.521 281.506 C 250.483 281.606,246.801 281.653,246.465 282.306 C 245.607 283.974,244.705 294.374,245.144 297.526 C 245.380 299.216,245.693 301.950,245.840 303.600 C 245.986 305.250,246.443 307.268,246.853 308.084 C 247.264 308.900,247.601 310.070,247.601 310.684 C 247.602 311.298,247.952 312.372,248.378 313.071 C 248.804 313.770,249.282 315.030,249.439 315.871 C 249.596 316.712,249.982 317.589,250.297 317.820 C 250.611 318.050,250.994 318.854,251.147 319.605 C 251.539 321.518,251.517 321.515,267.651 321.560 C 279.241 321.593,281.988 321.703,282.360 322.152 C 282.612 322.455,283.313 322.803,283.919 322.924 C 285.289 323.198,287.917 325.252,288.841 326.771 C 289.223 327.399,289.730 328.033,289.968 328.180 C 290.205 328.327,290.400 328.847,290.400 329.335 C 290.400 329.823,290.680 330.622,291.022 331.110 C 291.882 332.337,291.882 337.711,291.022 339.022 C 290.680 339.545,290.400 340.323,290.400 340.752 C 290.400 342.142,286.106 346.655,284.400 347.059 C 283.850 347.189,282.950 347.589,282.400 347.948 C 280.658 349.084,120.681 349.139,118.116 348.004 C 117.116 347.562,116.096 347.198,115.849 347.195 C 114.126 347.174,109.600 342.018,109.600 340.075 C 109.600 339.648,109.330 339.074,109.000 338.800 C 108.190 338.128,108.172 332.746,108.974 331.262 C 109.289 330.678,109.644 329.737,109.763 329.172 C 110.088 327.628,114.424 323.255,115.931 322.954 C 116.619 322.816,117.388 322.455,117.640 322.152 C 118.013 321.702,120.700 321.600,132.199 321.600 C 149.112 321.600,148.506 321.680,149.125 319.365 C 149.385 318.394,149.758 317.600,149.954 317.600 C 150.150 317.600,150.436 316.925,150.589 316.100 C 150.742 315.275,151.189 314.060,151.583 313.400 C 151.977 312.740,152.397 311.421,152.516 310.469 C 152.635 309.517,153.001 308.437,153.329 308.069 C 155.166 306.012,155.339 284.295,153.536 282.123 C 153.193 281.710,140.902 281.589,90.655 281.505 L 28.200 281.400 25.877 280.150 C 23.408 278.822,19.200 275.315,19.200 274.587 C 19.200 274.347,18.847 273.772,18.416 273.310 C 17.985 272.847,17.516 271.958,17.374 271.334 C 17.231 270.710,16.772 269.465,16.354 268.567 C 15.271 266.241,15.351 66.059,16.436 64.382 C 16.785 63.842,17.192 62.786,17.339 62.036 C 17.486 61.285,17.964 60.420,18.403 60.113 C 18.841 59.806,19.200 59.318,19.200 59.029 C 19.200 58.392,22.999 54.400,23.604 54.400 C 23.840 54.400,24.420 54.040,24.892 53.600 C 25.364 53.160,26.217 52.800,26.786 52.800 C 27.356 52.800,28.190 52.542,28.641 52.226 C 29.947 51.311,25.365 51.334,201.600 51.368 C 361.498 51.398,370.251 51.436,371.189 52.100 M25.600 253.567 C 25.600 260.906,25.742 264.781,26.014 264.871 C 26.242 264.947,26.697 265.790,27.026 266.745 C 27.668 268.607,27.877 268.864,30.011 270.400 L 31.400 271.400 200.000 271.400 L 368.600 271.400 370.528 270.053 C 371.588 269.312,372.620 268.232,372.820 267.653 C 373.020 267.074,373.458 266.090,373.792 265.468 C 374.294 264.533,374.400 262.417,374.400 253.368 L 374.400 242.400 200.000 242.400 L 25.600 242.400 25.600 253.567 M216.367 251.976 C 218.101 252.311,219.572 253.566,219.591 254.729 C 219.596 255.019,219.870 255.527,220.200 255.857 C 220.937 256.594,220.966 257.373,220.283 258.071 C 219.999 258.362,219.521 259.200,219.221 259.934 C 218.393 261.956,217.978 262.000,199.828 262.000 C 181.661 262.000,180.800 261.900,180.800 259.800 C 180.800 259.501,180.554 259.011,180.253 258.710 C 179.386 257.843,179.119 256.541,179.686 255.942 C 179.969 255.644,180.510 254.730,180.889 253.911 C 181.557 252.465,181.912 252.258,184.400 251.866 C 186.417 251.549,214.655 251.646,216.367 251.976 M120.345 332.502 C 118.521 334.055,118.630 337.246,120.525 337.754 C 122.556 338.299,279.421 338.019,280.173 337.469 C 281.454 336.533,281.236 333.713,279.794 332.560 L 278.600 331.604 200.000 331.604 L 121.400 331.604 120.345 332.502 " stroke="none" fill="#f9f9f9" fill-rule="evenodd"></path><path id="path3" d="M31.230 51.494 C 30.256 51.581,29.086 51.929,28.630 52.267 C 27.853 52.842,27.903 52.859,29.400 52.540 C 31.474 52.099,368.954 52.093,370.800 52.535 L 372.200 52.869 371.200 52.135 C 370.270 51.452,38.678 50.827,31.230 51.494 M24.892 53.600 C 24.420 54.040,23.840 54.400,23.604 54.400 C 23.100 54.400,19.200 58.341,19.200 58.851 C 19.200 59.043,20.184 58.224,21.386 57.031 C 22.588 55.839,23.938 54.747,24.386 54.604 C 24.834 54.462,25.200 54.193,25.200 54.006 C 25.200 53.820,25.695 53.486,26.300 53.265 C 27.199 52.937,27.249 52.857,26.575 52.832 C 26.122 52.814,25.364 53.160,24.892 53.600 M373.800 53.427 C 375.890 54.464,376.821 55.072,377.599 55.907 C 378.015 56.353,378.500 56.782,378.678 56.859 C 378.855 56.937,379.495 57.599,380.100 58.331 C 380.718 59.078,381.200 59.407,381.200 59.080 C 381.200 58.462,377.015 54.400,376.378 54.400 C 376.170 54.400,375.640 54.040,375.200 53.600 C 374.760 53.160,373.995 52.807,373.500 52.816 C 372.694 52.830,372.726 52.894,373.800 53.427 M18.301 60.156 C 17.917 60.448,17.512 61.297,17.401 62.043 C 17.206 63.351,17.213 63.359,17.576 62.257 C 17.784 61.628,18.262 60.773,18.639 60.357 C 19.433 59.479,19.298 59.399,18.301 60.156 M381.633 60.642 C 381.981 61.059,382.656 62.862,383.133 64.648 L 384.000 67.896 383.995 167.048 L 383.989 266.200 383.081 269.000 C 381.736 273.148,379.631 276.115,376.440 278.361 C 375.472 279.043,374.958 279.600,375.298 279.600 C 375.638 279.600,376.340 279.153,376.858 278.607 C 377.376 278.061,377.947 277.611,378.126 277.607 C 379.048 277.587,382.089 273.115,383.388 269.867 L 384.403 267.329 384.301 166.365 L 384.198 65.400 383.199 62.830 C 382.650 61.417,381.930 60.175,381.600 60.072 C 381.087 59.910,381.092 59.993,381.633 60.642 M16.383 64.400 C 15.443 66.013,15.305 266.144,16.242 268.305 C 16.598 269.127,16.971 269.585,17.071 269.322 C 17.170 269.059,17.019 268.429,16.733 267.922 C 16.082 266.764,16.223 66.123,16.876 65.319 C 17.090 65.055,17.198 64.515,17.116 64.119 C 16.986 63.502,16.883 63.541,16.383 64.400 M174.250 98.050 C 174.017 99.214,173.879 114.690,174.100 114.891 C 174.155 114.941,187.458 115.076,203.661 115.191 L 233.123 115.400 234.361 116.696 L 235.600 117.993 235.600 144.747 C 235.600 166.321,235.702 171.586,236.124 171.937 C 236.695 172.410,286.837 172.672,287.592 172.205 C 288.035 171.931,288.187 99.337,287.748 97.700 L 287.507 96.800 231.003 96.800 L 174.500 96.800 174.250 98.050 M112.498 125.131 C 112.100 125.384,112.017 133.189,112.098 162.825 L 112.200 200.200 169.100 200.301 L 226.000 200.403 226.000 162.844 C 226.000 128.965,225.938 125.262,225.367 125.043 C 224.413 124.676,113.077 124.763,112.498 125.131 M200.000 242.300 L 374.400 242.401 374.400 253.368 C 374.400 262.417,374.294 264.533,373.792 265.468 C 373.458 266.090,373.020 267.074,372.820 267.653 C 372.620 268.232,371.588 269.312,370.528 270.053 L 368.600 271.400 200.800 271.603 L 33.000 271.806 201.000 271.803 L 369.000 271.800 370.845 270.600 C 374.389 268.295,374.600 267.351,374.600 253.800 L 374.600 242.200 200.100 242.199 L 25.600 242.199 200.000 242.300 M184.400 251.866 C 181.912 252.258,181.557 252.465,180.889 253.911 C 180.510 254.730,179.969 255.644,179.686 255.942 C 179.119 256.541,179.386 257.843,180.253 258.710 C 180.554 259.011,180.800 259.501,180.800 259.800 C 180.800 261.900,181.661 262.000,199.828 262.000 C 217.978 262.000,218.393 261.956,219.221 259.934 C 219.521 259.200,219.999 258.362,220.283 258.071 C 220.966 257.373,220.937 256.594,220.200 255.857 C 219.870 255.527,219.596 255.019,219.591 254.729 C 219.572 253.566,218.101 252.311,216.367 251.976 C 214.655 251.646,186.417 251.549,184.400 251.866 M218.186 253.630 C 220.031 255.510,219.933 258.815,217.986 260.430 L 216.600 261.578 200.084 261.589 C 183.703 261.600,183.558 261.593,182.381 260.723 C 180.115 259.048,179.975 255.436,182.101 253.500 L 183.308 252.400 200.154 252.411 L 217.000 252.422 218.186 253.630 M25.600 265.567 C 25.600 265.988,25.741 266.393,25.912 266.467 C 26.084 266.540,26.499 267.177,26.835 267.882 C 27.717 269.736,30.230 271.611,31.755 271.553 C 32.915 271.509,32.932 271.488,32.000 271.253 C 30.056 270.762,27.200 268.444,27.200 267.358 C 27.200 266.580,26.320 264.800,25.936 264.800 C 25.751 264.800,25.600 265.145,25.600 265.567 M17.391 271.108 C 17.497 271.827,17.947 272.806,18.392 273.283 C 18.836 273.760,19.200 274.335,19.200 274.559 C 19.200 275.406,24.589 279.944,25.049 279.484 C 25.173 279.361,24.493 278.751,23.540 278.130 C 21.148 276.570,18.339 273.139,17.541 270.800 C 17.249 269.946,17.227 269.990,17.391 271.108 M26.796 280.507 L 28.192 281.400 90.596 281.406 L 153.000 281.412 90.782 281.206 C 32.404 281.013,28.499 280.957,27.496 280.300 C 26.909 279.915,26.197 279.603,25.914 279.607 C 25.631 279.610,26.028 280.015,26.796 280.507 M372.600 280.316 C 371.486 280.951,366.932 281.015,309.400 281.207 L 247.400 281.414 309.810 281.407 L 372.220 281.400 373.364 280.500 C 374.710 279.441,374.305 279.344,372.600 280.316 M153.520 282.080 C 153.784 282.344,154.014 283.019,154.032 283.580 C 154.049 284.141,154.157 284.367,154.271 284.083 C 154.579 283.314,154.056 281.600,153.512 281.600 C 153.153 281.600,153.155 281.715,153.520 282.080 M245.801 283.100 C 245.671 283.925,245.303 285.770,244.982 287.200 C 244.319 290.150,244.196 298.473,244.789 300.240 C 245.003 300.878,245.361 302.909,245.584 304.754 C 245.808 306.598,246.186 308.342,246.423 308.628 C 246.661 308.914,247.008 309.655,247.193 310.274 C 247.493 311.274,247.535 311.297,247.566 310.484 C 247.585 309.980,247.264 308.900,246.853 308.084 C 246.443 307.268,245.986 305.250,245.840 303.600 C 245.693 301.950,245.380 299.216,245.144 297.526 C 244.704 294.368,245.608 283.973,246.468 282.300 C 246.693 281.862,246.680 281.600,246.432 281.600 C 246.214 281.600,245.930 282.275,245.801 283.100 M154.707 288.000 C 155.061 292.360,155.065 294.855,154.725 299.800 C 154.385 304.746,155.020 302.859,155.605 297.183 C 155.991 293.440,155.749 290.057,154.818 286.200 C 154.528 285.002,154.501 285.454,154.707 288.000 M154.101 305.800 C 154.105 306.680,154.187 306.993,154.283 306.495 C 154.379 305.998,154.375 305.278,154.275 304.895 C 154.175 304.513,154.096 304.920,154.101 305.800 M153.249 308.140 C 152.963 308.486,152.658 309.541,152.572 310.484 C 152.429 312.051,152.445 312.087,152.757 310.902 C 152.944 310.189,153.318 309.340,153.587 309.016 C 153.856 308.692,154.007 308.221,153.923 307.970 C 153.823 307.668,153.593 307.726,153.249 308.140 M247.601 312.490 C 247.601 312.870,247.959 313.770,248.399 314.490 C 248.838 315.211,249.198 316.192,249.199 316.671 C 249.199 317.151,249.472 317.815,249.804 318.147 C 250.136 318.479,250.574 319.166,250.778 319.675 L 251.149 320.600 251.175 319.700 C 251.189 319.205,250.865 318.465,250.455 318.055 C 250.045 317.645,249.584 316.642,249.431 315.826 C 249.114 314.136,247.604 311.383,247.601 312.490 M151.537 313.471 C 151.172 314.092,150.747 315.275,150.592 316.100 C 150.438 316.925,150.150 317.600,149.954 317.600 C 149.758 317.600,149.385 318.394,149.125 319.365 C 148.506 321.680,149.112 321.600,132.199 321.600 C 120.700 321.600,118.013 321.702,117.640 322.152 C 117.388 322.455,116.665 322.807,116.033 322.933 C 114.065 323.327,109.583 328.093,109.618 329.755 C 109.635 330.530,109.676 330.516,110.118 329.591 C 113.319 322.886,116.006 322.012,133.571 321.960 C 148.953 321.914,148.845 321.929,149.328 319.885 C 149.521 319.068,149.834 318.400,150.024 318.400 C 150.213 318.400,150.586 317.635,150.853 316.700 C 151.120 315.765,151.593 314.698,151.904 314.330 C 152.215 313.961,152.409 313.363,152.335 313.001 C 152.232 312.500,152.040 312.613,151.537 313.471 M251.546 321.307 C 251.910 321.671,255.879 321.860,266.719 322.029 C 282.896 322.282,283.493 322.369,286.369 324.895 C 287.803 326.154,289.676 328.517,290.105 329.608 C 290.261 330.008,290.347 329.915,290.368 329.324 C 290.386 328.842,290.205 328.327,289.968 328.180 C 289.730 328.033,289.223 327.399,288.841 326.771 C 287.917 325.252,285.289 323.198,283.919 322.924 C 283.313 322.803,282.612 322.455,282.360 322.152 C 281.987 321.702,279.307 321.600,267.848 321.600 C 259.842 321.600,253.205 321.431,252.424 321.207 C 251.338 320.896,251.156 320.916,251.546 321.307 M290.569 331.200 C 291.172 333.515,291.276 336.358,290.810 337.769 C 290.258 339.444,290.499 340.110,291.190 338.819 C 291.916 337.462,291.770 332.168,290.977 331.099 L 290.309 330.200 290.569 331.200 M108.832 331.539 C 108.110 332.890,108.280 338.203,109.066 338.851 C 109.669 339.347,109.705 339.290,109.447 338.253 C 108.765 335.515,108.727 334.690,109.204 332.984 C 109.749 331.041,109.538 330.222,108.832 331.539 M119.272 332.336 C 117.620 333.811,117.531 335.781,119.036 337.569 L 120.071 338.800 200.055 338.800 L 280.038 338.800 281.007 337.700 C 282.480 336.026,282.364 333.796,280.728 332.336 L 279.456 331.200 200.000 331.200 L 120.544 331.200 119.272 332.336 M279.794 332.560 C 281.236 333.713,281.454 336.533,280.173 337.469 C 279.421 338.019,122.556 338.299,120.525 337.754 C 118.630 337.246,118.521 334.055,120.345 332.502 L 121.400 331.604 200.000 331.604 L 278.600 331.604 279.794 332.560 M109.640 340.126 C 109.540 341.949,114.129 347.174,115.849 347.195 C 116.096 347.198,117.116 347.562,118.116 348.004 C 120.681 349.139,280.658 349.084,282.400 347.948 C 282.950 347.589,283.850 347.189,284.400 347.059 C 286.030 346.673,290.411 342.142,290.388 340.866 C 290.378 340.316,290.296 340.338,289.915 340.995 C 289.373 341.929,289.227 342.123,287.572 344.100 C 286.882 344.925,286.066 345.600,285.759 345.600 C 285.451 345.600,285.200 345.773,285.200 345.984 C 285.200 348.080,124.902 349.413,118.037 347.374 C 114.389 346.291,110.971 343.260,109.947 340.200 C 109.711 339.493,109.675 339.484,109.640 340.126 " stroke="none" fill="#ace4ec" fill-rule="evenodd"></path><path id="path4" d="M30.200 52.397 C 29.540 52.575,28.348 52.833,27.551 52.969 C 26.755 53.105,25.692 53.573,25.190 54.008 C 24.688 54.444,24.142 54.800,23.976 54.800 C 22.598 54.800,17.783 61.073,17.376 63.400 C 17.222 64.280,16.958 65.180,16.791 65.400 C 16.064 66.354,16.188 266.470,16.917 268.514 C 17.293 269.567,17.603 270.647,17.607 270.914 C 17.616 271.467,19.400 274.188,20.858 275.871 C 21.929 277.107,25.384 279.600,26.026 279.600 C 26.247 279.600,26.909 279.915,27.496 280.300 C 28.499 280.957,32.410 281.012,91.049 281.200 C 125.415 281.310,153.665 281.531,153.825 281.692 C 154.132 281.998,154.945 286.009,155.592 290.400 C 155.994 293.131,155.775 298.384,155.156 300.861 C 154.955 301.664,154.617 303.689,154.405 305.360 C 154.193 307.031,153.763 308.803,153.448 309.299 C 153.134 309.794,152.750 311.010,152.595 312.000 C 152.440 312.990,152.094 314.070,151.825 314.400 C 151.557 314.730,151.120 315.765,150.853 316.700 C 150.586 317.635,150.213 318.400,150.024 318.400 C 149.834 318.400,149.521 319.068,149.328 319.885 C 148.845 321.929,148.953 321.914,133.571 321.960 C 122.336 321.993,119.820 322.106,118.171 322.649 C 106.043 326.643,105.950 343.785,118.037 347.374 C 121.793 348.489,278.919 348.308,282.558 347.184 C 284.011 346.735,285.200 346.195,285.200 345.984 C 285.200 345.773,285.451 345.600,285.759 345.600 C 286.221 345.600,287.618 344.192,289.132 342.200 C 291.795 338.696,291.668 331.496,288.877 327.642 C 285.112 322.445,283.386 322.000,266.998 322.000 C 251.872 322.000,251.719 321.982,250.925 320.083 C 250.604 319.313,250.084 318.427,249.770 318.113 C 249.457 317.799,249.199 317.151,249.199 316.671 C 249.198 316.192,248.868 315.260,248.465 314.600 C 248.063 313.940,247.605 312.590,247.447 311.600 C 247.289 310.610,246.919 309.432,246.625 308.983 C 246.331 308.534,246.001 307.814,245.892 307.383 C 245.710 306.668,245.689 306.675,245.646 307.467 C 245.621 307.944,245.960 309.174,246.400 310.200 C 246.840 311.226,247.200 312.320,247.200 312.630 C 247.200 314.553,251.212 322.129,252.400 322.450 C 252.950 322.599,259.340 322.741,266.600 322.766 C 283.715 322.826,284.900 323.105,288.369 327.893 C 292.759 333.954,289.453 345.291,282.890 346.684 C 282.070 346.858,244.500 347.000,199.400 347.000 L 117.400 347.000 115.280 345.619 C 108.589 341.263,107.579 331.993,113.185 326.388 C 116.717 322.855,117.024 322.801,133.367 322.798 C 148.842 322.795,148.622 322.838,150.134 319.502 C 152.442 314.407,152.699 313.770,152.994 312.400 C 153.160 311.630,153.552 310.499,153.865 309.887 C 154.178 309.275,154.598 307.655,154.798 306.287 C 154.998 304.919,155.457 302.540,155.817 301.000 C 156.676 297.327,156.462 288.188,155.463 285.851 C 155.098 284.999,154.800 283.862,154.800 283.325 C 154.800 280.547,161.031 280.801,92.686 280.790 C 57.286 280.785,30.809 280.627,30.000 280.418 C 27.641 279.806,25.571 278.953,24.762 278.260 C 24.338 277.897,23.819 277.600,23.609 277.600 C 23.155 277.600,19.600 273.956,19.600 273.491 C 19.600 273.313,19.242 272.680,18.803 272.084 C 16.993 269.621,17.040 272.192,16.915 168.236 C 16.790 65.111,16.784 65.554,18.384 62.000 C 20.287 57.773,24.886 53.994,29.070 53.221 C 32.354 52.614,368.376 52.632,371.208 53.239 C 376.689 54.415,381.420 59.282,382.605 64.963 C 383.503 69.271,383.540 264.927,382.644 268.541 C 381.424 273.458,377.805 277.520,372.703 279.699 L 370.600 280.597 308.333 280.799 C 274.087 280.909,245.991 281.090,245.898 281.200 C 245.579 281.581,244.304 287.011,243.928 289.600 C 243.455 292.849,243.829 300.260,244.580 302.508 C 244.891 303.439,245.226 304.650,245.325 305.200 C 245.424 305.750,245.433 305.093,245.345 303.739 C 245.258 302.386,244.999 300.742,244.770 300.086 C 243.909 297.615,245.087 282.780,246.237 281.630 C 246.363 281.504,274.577 281.310,308.933 281.200 L 371.400 281.000 374.064 279.688 C 378.589 277.460,381.430 274.092,383.081 269.000 L 383.989 266.200 383.995 167.048 L 384.000 67.896 383.114 64.648 C 382.247 61.472,380.922 59.005,379.221 57.400 C 378.755 56.960,377.987 56.195,377.514 55.700 C 377.042 55.205,376.501 54.800,376.312 54.800 C 376.122 54.800,375.480 54.448,374.884 54.018 C 371.916 51.878,382.399 51.997,199.875 52.036 C 107.214 52.056,30.860 52.218,30.200 52.397 M173.700 96.665 C 172.747 97.050,173.007 114.669,173.974 115.186 C 174.486 115.460,184.444 115.600,203.496 115.600 L 232.244 115.600 233.722 116.954 L 235.200 118.308 235.206 145.254 C 235.210 161.531,235.362 172.438,235.591 172.800 C 235.921 173.321,239.346 173.415,261.685 173.512 L 287.400 173.624 288.100 172.768 C 288.933 171.748,289.210 98.713,288.386 97.174 C 287.988 96.430,175.519 95.931,173.700 96.665 M287.748 97.700 C 288.187 99.337,288.035 171.931,287.592 172.205 C 286.837 172.672,236.695 172.410,236.124 171.937 C 235.702 171.586,235.600 166.321,235.600 144.747 L 235.600 117.993 234.361 116.696 L 233.123 115.400 203.661 115.191 C 187.458 115.076,174.155 114.941,174.100 114.891 C 173.879 114.690,174.017 99.214,174.250 98.050 L 174.500 96.800 231.003 96.800 L 287.507 96.800 287.748 97.700 M111.900 124.832 C 110.947 125.387,110.798 199.568,111.748 200.357 C 112.326 200.836,225.652 201.063,226.423 200.586 C 227.283 200.054,226.891 125.277,226.026 124.814 C 224.959 124.243,112.881 124.260,111.900 124.832 M225.367 125.043 C 225.938 125.262,226.000 128.965,226.000 162.844 L 226.000 200.403 169.100 200.301 L 112.200 200.200 112.098 162.825 C 112.017 133.189,112.100 125.384,112.498 125.131 C 113.077 124.763,224.413 124.676,225.367 125.043 M25.467 241.467 C 25.320 241.613,25.203 242.018,25.206 242.367 C 25.211 242.834,25.296 242.868,25.530 242.500 C 25.784 242.100,60.987 242.019,200.224 242.100 L 374.600 242.200 374.600 253.800 C 374.600 267.351,374.389 268.295,370.845 270.600 L 369.000 271.800 202.600 271.920 C 111.080 271.986,34.901 271.926,33.314 271.787 C 30.054 271.502,27.950 270.232,26.840 267.882 C 26.506 267.177,26.094 266.501,25.923 266.380 C 25.753 266.260,25.562 261.130,25.500 254.980 L 25.387 243.800 25.293 255.129 L 25.200 266.458 26.210 268.182 C 26.766 269.130,27.966 270.422,28.876 271.053 L 30.532 272.200 198.966 272.312 C 316.609 272.390,367.920 272.296,369.126 272.000 C 371.108 271.512,373.134 269.682,374.370 267.260 C 375.370 265.298,375.681 242.641,374.720 241.680 C 374.196 241.156,25.991 240.943,25.467 241.467 M182.101 253.500 C 179.975 255.436,180.115 259.048,182.381 260.723 C 183.558 261.593,183.703 261.600,200.084 261.589 L 216.600 261.578 217.986 260.430 C 219.933 258.815,220.031 255.510,218.186 253.630 L 217.000 252.422 200.154 252.411 L 183.308 252.400 182.101 253.500 M217.582 253.928 C 220.400 256.281,219.057 260.322,215.249 260.952 C 212.799 261.357,185.907 261.225,184.379 260.801 C 180.925 259.841,179.898 256.082,182.496 253.911 L 183.800 252.822 200.015 252.811 L 216.230 252.800 217.582 253.928 M165.150 302.263 C 164.662 302.395,164.430 303.159,164.220 305.320 C 164.066 306.904,163.593 308.988,163.170 309.951 C 162.746 310.914,162.400 312.285,162.400 312.997 C 162.400 313.709,162.046 314.742,161.613 315.292 C 161.181 315.842,160.705 317.051,160.557 317.978 C 160.399 318.965,159.980 319.856,159.544 320.128 C 159.135 320.383,158.800 320.729,158.800 320.896 C 158.800 321.063,177.340 321.200,200.000 321.200 C 222.660 321.200,241.200 321.063,241.200 320.896 C 241.200 320.729,240.866 320.384,240.457 320.128 C 240.008 319.848,239.626 319.007,239.491 318.001 C 239.368 317.086,238.956 315.994,238.576 315.573 C 238.181 315.137,237.801 313.903,237.693 312.704 C 237.588 311.547,237.237 310.297,236.914 309.927 C 236.567 309.531,236.212 307.939,236.050 306.048 C 235.898 304.284,235.630 302.697,235.454 302.520 C 235.127 302.193,166.333 301.941,165.150 302.263 M118.699 331.964 C 116.965 333.801,117.107 336.684,119.014 338.359 L 120.428 339.600 199.950 339.600 L 279.471 339.600 280.921 338.500 C 282.951 336.960,283.127 333.836,281.292 331.900 L 280.250 330.800 200.024 330.800 L 119.797 330.800 118.699 331.964 M280.728 332.336 C 282.364 333.796,282.480 336.026,281.007 337.700 L 280.038 338.800 200.055 338.800 L 120.071 338.800 119.036 337.569 C 117.531 335.781,117.620 333.811,119.272 332.336 L 120.544 331.200 200.000 331.200 L 279.456 331.200 280.728 332.336 " stroke="none" fill="#9ba4a4" fill-rule="evenodd"></path></g></svg>